<!DOCTYPE svg PUBLIC "-//W3C//DTD SVG 1.1//EN" "http://www.w3.org/Graphics/SVG/1.1/DTD/svg11.dtd">
<!-- Uploaded to: SVG Repo, www.svgrepo.com, Transformed by: SVG Repo Mixer Tools -->
<svg width="64px" height="64px" viewBox="0 0 24 24" fill="none" xmlns="http://www.w3.org/2000/svg">
<g id="SVGRepo_bgCarrier" stroke-width="0"/>
<g id="SVGRepo_tracerCarrier" stroke-linecap="round" stroke-linejoin="round"/>
<g id="SVGRepo_iconCarrier"> <path d="M7 21L17 21" stroke="#f00000" stroke-width="1.5" stroke-linecap="round" stroke-linejoin="round"/> <path d="M13.5 7L13.5 11M13.5 13L13.5 11M13.5 11L14.8706 9.43363M17 7L14.8706 9.43363M14.8706 9.43363L17 13" stroke="#f00000" stroke-width="1.5" stroke-linecap="round" stroke-linejoin="round"/> <path d="M9.5 7L6.5 11.5L10 11.5L10 13" stroke="#f00000" stroke-width="1.5" stroke-linecap="round" stroke-linejoin="round"/> <path d="M2 16.4V3.6C2 3.26863 2.26863 3 2.6 3H21.4C21.7314 3 22 3.26863 22 3.6V16.4C22 16.7314 21.7314 17 21.4 17H2.6C2.26863 17 2 16.7314 2 16.4Z" stroke="#f00000" stroke-width="1.5"/> </g>
</svg>